<?xml version="1.0" standalone="no"?>
<!DOCTYPE svg PUBLIC "-//W3C//DTD SVG 20010904//EN"
 "http://www.w3.org/TR/2001/REC-SVG-20010904/DTD/svg10.dtd">
<svg version="1.0" xmlns="http://www.w3.org/2000/svg"
 width="500.000000pt" height="500.000000pt" viewBox="0 0 500.000000 500.000000"
 preserveAspectRatio="xMidYMid meet">

<g transform="translate(0.000000,500.000000) scale(0.100000,-0.100000)"
fill="#000000" stroke="none">
<path d="M2165 3916 c-138 -29 -216 -56 -330 -111 -412 -200 -708 -597 -779
-1041 -19 -119 -21 -354 -5 -455 l12 -69 1083 0 c595 0 1085 -4 1088 -8 9 -15
-65 -148 -124 -223 -82 -103 -168 -172 -285 -229 -150 -73 -203 -85 -380 -84
-141 1 -155 2 -245 33 -106 36 -199 87 -291 161 l-62 50 -339 0 c-226 0 -338
-3 -338 -10 0 -6 11 -32 24 -58 126 -248 363 -481 621 -610 276 -138 588 -183
898 -128 643 115 1123 666 1154 1325 5 115 -7 304 -23 345 -6 15 -97 16 -1090
16 -861 0 -1084 3 -1084 13 0 6 18 45 40 85 220 403 695 561 1103 367 69 -32
187 -114 216 -148 12 -15 50 -17 363 -17 329 0 350 1 344 18 -4 9 -25 49 -48
89 -126 221 -338 429 -568 556 -101 56 -241 105 -375 132 -170 35 -417 35
-580 1z"/>
</g>
</svg>
