<svg xmlns="http://www.w3.org/2000/svg" viewBox="0 0 500 500"><style>path{fill:#f2f2f2}@media (prefers-color-scheme:light){path{fill:#101010}}</style><path d="M479.2 263.2L479.2 235.9C478.5 224.2 476.9 213.3 474.6 201.6L123.6 201.6C143.1 150.9 192.2 114.2 249.9 114.2C287.4 114.2 321.7 129.8 345.9 154.8L459.7 154.8C442.6 118.1 416.8 86.9 384.9 63.5C347.4 35.4 300.6 19.8 249.9 19.8C200 19.8 153.2 35.4 115 63.5C69.7 96.3 37 145.4 25.3 201.6C22.9 213.3 21.4 224.2 20.6 235.9L20.6 263.2C21.4 274.9 22.9 285.8 25.3 296.7L376.3 296.7C356.8 348.2 307.6 384.1 249.9 384.1C212.5 384.1 178.9 369.3 154 344.3L40.9 344.3C57.3 381 83 412.2 115 435.6C153.2 462.9 200 479.3 249.9 479.3C300.6 479.3 347.4 462.9 384.9 435.6C430.1 402.8 462.9 353.7 474.6 296.7C476.9 285.8 478.5 274.9 479.2 263.2"/></svg>
